<?xml version="1.0" encoding="UTF-8"?><svg id="a" xmlns="http://www.w3.org/2000/svg" viewBox="0 0 494.72 87.46"><defs><style>.b{fill:#3c7639;}.c{fill:#231f20;}</style></defs><g><path class="b" d="M418.74,35.63V.72h9.58V86.74h-9.58V44.53h-44.04v42.21h-9.58V.72h9.58V35.63h44.04Z"/><path class="b" d="M454.56,86.74h-9.58V.72h12.43c16.31,0,31.49,4.34,31.49,23.73,0,13.23-8.33,22.59-21.56,23.73l27.38,38.56h-11.75l-26.01-37.76h-2.4v37.76Zm0-46.2h2.97c10.84,0,21.79-2.05,21.79-15.4,0-14.15-10.38-15.52-21.9-15.52h-2.85v30.92Z"/></g><path class="b" d="M67.44,73.61L43.28,6.07c-1.35-3.65-4.83-6.07-8.71-6.07s-7.32,2.38-8.69,5.99L.66,73.52c-2.52,6.75,2.47,13.94,9.67,13.94H57.69c7.17,0,12.17-7.1,9.75-13.85Zm-22.49,.24H23.09c-3.33,0-5.63-3.44-4.47-6.67l11.64-32.33c.63-1.73,2.23-2.87,4.01-2.87s3.4,1.16,4.02,2.91l11.16,32.34c1.11,3.23-1.19,6.63-4.5,6.63Z"/><g><path class="c" d="M120.7,86.18h-7.85v-6.37h-.2c-4.02,5.1-9.42,7.65-15.89,7.65-13.53,0-22.07-11.47-22.07-24.22s8.34-24.42,22.17-24.42c6.28,0,11.97,2.94,15.79,7.85h.2v-6.57h7.85v46.1Zm-37.96-23.54c0,9.02,5.3,17.56,15.1,17.56s15.4-8.14,15.4-17.46-5.79-16.67-15.5-16.67c-9.12,0-15.01,7.94-15.01,16.58Z"/><path class="c" d="M141.49,65.78c0,7.75,.88,14.42,10.4,14.42s10.4-6.67,10.4-14.42v-25.7h7.85v26.58c0,12.26-4.61,20.79-18.24,20.79s-18.24-8.53-18.24-20.79v-26.58h7.85v25.7Z"/><path class="c" d="M190.92,45.09h.2c2.75-3.63,5.1-6.28,10.2-6.28,2.65,0,4.81,.88,7.06,2.16l-3.73,7.16c-1.57-1.08-2.65-2.06-4.71-2.06-8.63,0-9.02,11.08-9.02,17.07v23.05h-7.85V40.09h7.85v5Z"/><path class="c" d="M211.22,63.23c0-13.53,10.69-24.42,24.22-24.42s24.23,10.89,24.23,24.42-10.79,24.22-24.23,24.22-24.22-10.69-24.22-24.22Zm7.85-.1c0,9.42,6.67,17.07,16.38,17.07s16.38-7.65,16.38-17.07-6.67-17.07-16.38-17.07-16.38,7.75-16.38,17.07Z"/><path class="c" d="M276.93,45.09h.2c2.75-3.63,5.1-6.28,10.2-6.28,2.65,0,4.81,.88,7.06,2.16l-3.73,7.16c-1.57-1.08-2.65-2.06-4.71-2.06-8.63,0-9.02,11.08-9.02,17.07v23.05h-7.85V40.09h7.85v5Z"/><path class="c" d="M343.42,86.18h-7.85v-6.37h-.2c-4.02,5.1-9.42,7.65-15.89,7.65-13.53,0-22.07-11.47-22.07-24.22s8.34-24.42,22.17-24.42c6.28,0,11.97,2.94,15.79,7.85h.2v-6.57h7.85v46.1Zm-37.96-23.54c0,9.02,5.3,17.56,15.1,17.56s15.4-8.14,15.4-17.46-5.79-16.67-15.5-16.67c-9.12,0-15.01,7.94-15.01,16.58Z"/></g></svg>